<mxfile host="app.diagrams.net" agent="Mozilla/5.0 (Windows NT 10.0; Win64; x64) AppleWebKit/537.36 (KHTML, like Gecko) Chrome/135.0.0.0 Safari/537.36" version="26.2.14">
  <diagram name="Page-1" id="2YBvvXClWsGukQMizWep">
    <mxGraphModel dx="1042" dy="596" grid="1" gridSize="10" guides="1" tooltips="1" connect="1" arrows="1" fold="1" page="1" pageScale="1" pageWidth="1100" pageHeight="850" math="0" shadow="0">
      <root>
        <mxCell id="0" />
        <mxCell id="1" parent="0" />
        <mxCell id="1x29o_3ZwKhWgOv2N2SG-2" value="用户" style="shape=umlLifeline;perimeter=lifelinePerimeter;whiteSpace=wrap;html=1;container=1;dropTarget=0;collapsible=0;recursiveResize=0;outlineConnect=0;portConstraint=eastwest;newEdgeStyle={&quot;curved&quot;:0,&quot;rounded&quot;:0};fontFamily=宋体;fontSize=14;" parent="1" vertex="1">
          <mxGeometry x="20" y="50" width="80" height="480" as="geometry" />
        </mxCell>
        <mxCell id="1x29o_3ZwKhWgOv2N2SG-4" value="" style="html=1;points=[[0,0,0,0,5],[0,1,0,0,-5],[1,0,0,0,5],[1,1,0,0,-5]];perimeter=orthogonalPerimeter;outlineConnect=0;targetShapes=umlLifeline;portConstraint=eastwest;newEdgeStyle={&quot;curved&quot;:0,&quot;rounded&quot;:0};fontFamily=宋体;fontSize=14;" parent="1x29o_3ZwKhWgOv2N2SG-2" vertex="1">
          <mxGeometry x="35" y="50" width="10" height="410" as="geometry" />
        </mxCell>
        <mxCell id="1x29o_3ZwKhWgOv2N2SG-3" value="前端界面" style="shape=umlLifeline;perimeter=lifelinePerimeter;whiteSpace=wrap;html=1;container=1;dropTarget=0;collapsible=0;recursiveResize=0;outlineConnect=0;portConstraint=eastwest;newEdgeStyle={&quot;curved&quot;:0,&quot;rounded&quot;:0};fontFamily=宋体;fontSize=14;" parent="1" vertex="1">
          <mxGeometry x="160" y="50" width="80" height="480" as="geometry" />
        </mxCell>
        <mxCell id="1x29o_3ZwKhWgOv2N2SG-5" value="" style="html=1;points=[[0,0,0,0,5],[0,1,0,0,-5],[1,0,0,0,5],[1,1,0,0,-5]];perimeter=orthogonalPerimeter;outlineConnect=0;targetShapes=umlLifeline;portConstraint=eastwest;newEdgeStyle={&quot;curved&quot;:0,&quot;rounded&quot;:0};fontFamily=宋体;fontSize=14;" parent="1x29o_3ZwKhWgOv2N2SG-3" vertex="1">
          <mxGeometry x="35" y="50" width="10" height="410" as="geometry" />
        </mxCell>
        <mxCell id="1x29o_3ZwKhWgOv2N2SG-6" value="Controller" style="shape=umlLifeline;perimeter=lifelinePerimeter;whiteSpace=wrap;html=1;container=1;dropTarget=0;collapsible=0;recursiveResize=0;outlineConnect=0;portConstraint=eastwest;newEdgeStyle={&quot;curved&quot;:0,&quot;rounded&quot;:0};fontFamily=宋体;fontSize=14;" parent="1" vertex="1">
          <mxGeometry x="310" y="50" width="80" height="480" as="geometry" />
        </mxCell>
        <mxCell id="1x29o_3ZwKhWgOv2N2SG-7" value="" style="html=1;points=[[0,0,0,0,5],[0,1,0,0,-5],[1,0,0,0,5],[1,1,0,0,-5]];perimeter=orthogonalPerimeter;outlineConnect=0;targetShapes=umlLifeline;portConstraint=eastwest;newEdgeStyle={&quot;curved&quot;:0,&quot;rounded&quot;:0};fontFamily=宋体;fontSize=14;" parent="1x29o_3ZwKhWgOv2N2SG-6" vertex="1">
          <mxGeometry x="35" y="50" width="10" height="410" as="geometry" />
        </mxCell>
        <mxCell id="1x29o_3ZwKhWgOv2N2SG-8" value="ServiceImpl" style="shape=umlLifeline;perimeter=lifelinePerimeter;whiteSpace=wrap;html=1;container=1;dropTarget=0;collapsible=0;recursiveResize=0;outlineConnect=0;portConstraint=eastwest;newEdgeStyle={&quot;curved&quot;:0,&quot;rounded&quot;:0};fontFamily=宋体;fontSize=14;" parent="1" vertex="1">
          <mxGeometry x="465" y="50" width="80" height="480" as="geometry" />
        </mxCell>
        <mxCell id="1x29o_3ZwKhWgOv2N2SG-9" value="" style="html=1;points=[[0,0,0,0,5],[0,1,0,0,-5],[1,0,0,0,5],[1,1,0,0,-5]];perimeter=orthogonalPerimeter;outlineConnect=0;targetShapes=umlLifeline;portConstraint=eastwest;newEdgeStyle={&quot;curved&quot;:0,&quot;rounded&quot;:0};fontFamily=宋体;fontSize=14;" parent="1x29o_3ZwKhWgOv2N2SG-8" vertex="1">
          <mxGeometry x="35" y="50" width="10" height="410" as="geometry" />
        </mxCell>
        <mxCell id="1x29o_3ZwKhWgOv2N2SG-74" value="" style="group" parent="1" vertex="1" connectable="0">
          <mxGeometry x="214.88472440944884" y="450" width="130.36220472440942" height="26" as="geometry" />
        </mxCell>
        <mxCell id="1x29o_3ZwKhWgOv2N2SG-62" value="更新表格显示" style="text;html=1;align=center;verticalAlign=middle;whiteSpace=wrap;rounded=0;fontSize=14;fontFamily=宋体;" parent="1x29o_3ZwKhWgOv2N2SG-74" vertex="1">
          <mxGeometry width="117.79527559055119" height="26" as="geometry" />
        </mxCell>
        <mxCell id="1x29o_3ZwKhWgOv2N2SG-63" value="" style="endArrow=classic;html=1;rounded=0;" parent="1x29o_3ZwKhWgOv2N2SG-74" target="1x29o_3ZwKhWgOv2N2SG-5" edge="1">
          <mxGeometry width="50" height="50" relative="1" as="geometry">
            <mxPoint x="130.36220472440942" y="24" as="sourcePoint" />
            <mxPoint x="-4.204724409448829" y="24" as="targetPoint" />
          </mxGeometry>
        </mxCell>
        <mxCell id="ad1gADm1mFAbiEcde9q4-3" value="" style="group" parent="1" vertex="1" connectable="0">
          <mxGeometry x="65" y="102.31" width="130" height="30" as="geometry" />
        </mxCell>
        <mxCell id="ad1gADm1mFAbiEcde9q4-1" value="" style="endArrow=classic;html=1;rounded=0;fontSize=14;fontFamily=宋体;" parent="ad1gADm1mFAbiEcde9q4-3" edge="1">
          <mxGeometry width="50" height="50" relative="1" as="geometry">
            <mxPoint y="30" as="sourcePoint" />
            <mxPoint x="130" y="30" as="targetPoint" />
          </mxGeometry>
        </mxCell>
        <mxCell id="ad1gADm1mFAbiEcde9q4-2" value="&lt;div&gt;点击&lt;/div&gt;新增/修改" style="text;html=1;align=center;verticalAlign=middle;whiteSpace=wrap;rounded=0;fontSize=14;fontFamily=宋体;" parent="ad1gADm1mFAbiEcde9q4-3" vertex="1">
          <mxGeometry x="9" width="110" height="26" as="geometry" />
        </mxCell>
        <mxCell id="ad1gADm1mFAbiEcde9q4-8" value="" style="group" parent="1" vertex="1" connectable="0">
          <mxGeometry x="65" y="137" width="130" height="26" as="geometry" />
        </mxCell>
        <mxCell id="ad1gADm1mFAbiEcde9q4-14" value="" style="group" parent="ad1gADm1mFAbiEcde9q4-8" vertex="1" connectable="0">
          <mxGeometry width="130" height="26" as="geometry" />
        </mxCell>
        <mxCell id="ad1gADm1mFAbiEcde9q4-15" value="" style="group" parent="ad1gADm1mFAbiEcde9q4-14" vertex="1" connectable="0">
          <mxGeometry x="-1" y="6" width="130" height="26" as="geometry" />
        </mxCell>
        <mxCell id="ad1gADm1mFAbiEcde9q4-5" value="" style="endArrow=none;html=1;rounded=0;fontSize=14;fontFamily=宋体;startFill=1;startArrow=classic;" parent="ad1gADm1mFAbiEcde9q4-15" edge="1">
          <mxGeometry width="50" height="50" relative="1" as="geometry">
            <mxPoint y="24" as="sourcePoint" />
            <mxPoint x="130" y="24" as="targetPoint" />
          </mxGeometry>
        </mxCell>
        <mxCell id="ad1gADm1mFAbiEcde9q4-6" value="&lt;div&gt;显示编辑对话框&lt;/div&gt;" style="text;html=1;align=center;verticalAlign=middle;whiteSpace=wrap;rounded=0;fontSize=14;fontFamily=宋体;" parent="ad1gADm1mFAbiEcde9q4-15" vertex="1">
          <mxGeometry x="9" width="110" height="26" as="geometry" />
        </mxCell>
        <mxCell id="ad1gADm1mFAbiEcde9q4-13" value="" style="group" parent="1" vertex="1" connectable="0">
          <mxGeometry x="66" y="176.31" width="130" height="26" as="geometry" />
        </mxCell>
        <mxCell id="ad1gADm1mFAbiEcde9q4-10" value="" style="endArrow=classic;html=1;rounded=0;fontSize=14;fontFamily=宋体;" parent="ad1gADm1mFAbiEcde9q4-13" edge="1">
          <mxGeometry width="50" height="50" relative="1" as="geometry">
            <mxPoint y="23" as="sourcePoint" />
            <mxPoint x="130" y="23" as="targetPoint" />
          </mxGeometry>
        </mxCell>
        <mxCell id="ad1gADm1mFAbiEcde9q4-11" value="提交表单" style="text;html=1;align=center;verticalAlign=middle;whiteSpace=wrap;rounded=0;fontSize=14;fontFamily=宋体;" parent="ad1gADm1mFAbiEcde9q4-13" vertex="1">
          <mxGeometry x="8" width="110" height="26" as="geometry" />
        </mxCell>
        <mxCell id="ad1gADm1mFAbiEcde9q4-16" value="" style="endArrow=classic;html=1;rounded=0;targetPerimeterSpacing=-4;sourcePerimeterSpacing=-1;entryX=1;entryY=0.395;entryDx=0;entryDy=0;entryPerimeter=0;" parent="1" edge="1">
          <mxGeometry width="50" height="50" relative="1" as="geometry">
            <mxPoint x="205" y="226" as="sourcePoint" />
            <mxPoint x="205" y="256.1" as="targetPoint" />
            <Array as="points">
              <mxPoint x="245" y="226" />
              <mxPoint x="245" y="256" />
            </Array>
          </mxGeometry>
        </mxCell>
        <mxCell id="ad1gADm1mFAbiEcde9q4-19" value="[校验不通过]" style="text;html=1;align=center;verticalAlign=middle;whiteSpace=wrap;rounded=0;fontFamily=宋体;fontSize=11;spacing=0;" parent="1" vertex="1">
          <mxGeometry x="100" y="237" width="90" height="30" as="geometry" />
        </mxCell>
        <mxCell id="ad1gADm1mFAbiEcde9q4-20" value="&lt;font style=&quot;font-size: 11px;&quot;&gt;校验结果&lt;/font&gt;" style="shape=umlFrame;whiteSpace=wrap;html=1;pointerEvents=0;rounded=0;align=center;verticalAlign=middle;spacing=0;fontFamily=宋体;fontSize=14;fontColor=default;fillColor=none;gradientColor=none;" parent="1" vertex="1">
          <mxGeometry x="100" y="210" width="270" height="120" as="geometry" />
        </mxCell>
        <mxCell id="ad1gADm1mFAbiEcde9q4-24" value="" style="endArrow=none;dashed=1;html=1;rounded=0;fontFamily=宋体;fontSize=14;fontColor=default;exitX=0.006;exitY=0.533;exitDx=0;exitDy=0;exitPerimeter=0;" parent="1" edge="1">
          <mxGeometry width="50" height="50" relative="1" as="geometry">
            <mxPoint x="101.74000000000001" y="268.61" as="sourcePoint" />
            <mxPoint x="370" y="269" as="targetPoint" />
          </mxGeometry>
        </mxCell>
        <mxCell id="ad1gADm1mFAbiEcde9q4-25" value="[校验通过]" style="text;html=1;align=center;verticalAlign=middle;whiteSpace=wrap;rounded=0;fontFamily=宋体;fontSize=11;spacing=0;" parent="1" vertex="1">
          <mxGeometry x="99" y="276" width="90" height="30" as="geometry" />
        </mxCell>
        <mxCell id="ad1gADm1mFAbiEcde9q4-27" value="" style="group;spacing=0;" parent="1" vertex="1" connectable="0">
          <mxGeometry x="355" y="325" width="145" height="27" as="geometry" />
        </mxCell>
        <mxCell id="1x29o_3ZwKhWgOv2N2SG-51" value="" style="endArrow=none;html=1;rounded=0;startArrow=classic;startFill=1;endFill=1;" parent="ad1gADm1mFAbiEcde9q4-27" edge="1">
          <mxGeometry width="50" height="50" relative="1" as="geometry">
            <mxPoint x="145" y="27" as="sourcePoint" />
            <mxPoint y="27" as="targetPoint" />
          </mxGeometry>
        </mxCell>
        <mxCell id="1x29o_3ZwKhWgOv2N2SG-52" value="createOrEdit方法" style="text;html=1;align=center;verticalAlign=middle;whiteSpace=wrap;rounded=0;fontSize=14;fontFamily=宋体;spacing=0;" parent="ad1gADm1mFAbiEcde9q4-27" vertex="1">
          <mxGeometry x="15" width="116" height="26" as="geometry" />
        </mxCell>
        <mxCell id="ad1gADm1mFAbiEcde9q4-28" value="MyBatis Mapper" style="shape=umlLifeline;perimeter=lifelinePerimeter;whiteSpace=wrap;html=1;container=1;dropTarget=0;collapsible=0;recursiveResize=0;outlineConnect=0;portConstraint=eastwest;newEdgeStyle={&quot;curved&quot;:0,&quot;rounded&quot;:0};fontFamily=宋体;fontSize=14;" parent="1" vertex="1">
          <mxGeometry x="595" y="50" width="80" height="480" as="geometry" />
        </mxCell>
        <mxCell id="ad1gADm1mFAbiEcde9q4-29" value="" style="html=1;points=[[0,0,0,0,5],[0,1,0,0,-5],[1,0,0,0,5],[1,1,0,0,-5]];perimeter=orthogonalPerimeter;outlineConnect=0;targetShapes=umlLifeline;portConstraint=eastwest;newEdgeStyle={&quot;curved&quot;:0,&quot;rounded&quot;:0};fontFamily=宋体;fontSize=14;" parent="ad1gADm1mFAbiEcde9q4-28" vertex="1">
          <mxGeometry x="35" y="50" width="10" height="410" as="geometry" />
        </mxCell>
        <mxCell id="ad1gADm1mFAbiEcde9q4-32" value="MySQL&lt;div&gt;数据库&lt;/div&gt;" style="shape=umlLifeline;perimeter=lifelinePerimeter;whiteSpace=wrap;html=1;container=1;dropTarget=0;collapsible=0;recursiveResize=0;outlineConnect=0;portConstraint=eastwest;newEdgeStyle={&quot;curved&quot;:0,&quot;rounded&quot;:0};fontFamily=宋体;fontSize=14;" parent="1" vertex="1">
          <mxGeometry x="720" y="50" width="80" height="470" as="geometry" />
        </mxCell>
        <mxCell id="ad1gADm1mFAbiEcde9q4-33" value="" style="html=1;points=[[0,0,0,0,5],[0,1,0,0,-5],[1,0,0,0,5],[1,1,0,0,-5]];perimeter=orthogonalPerimeter;outlineConnect=0;targetShapes=umlLifeline;portConstraint=eastwest;newEdgeStyle={&quot;curved&quot;:0,&quot;rounded&quot;:0};fontFamily=宋体;fontSize=14;" parent="ad1gADm1mFAbiEcde9q4-32" vertex="1">
          <mxGeometry x="35" y="50" width="10" height="410" as="geometry" />
        </mxCell>
        <mxCell id="ad1gADm1mFAbiEcde9q4-35" value="" style="group" parent="1" vertex="1" connectable="0">
          <mxGeometry x="510" y="340" width="120" height="30" as="geometry" />
        </mxCell>
        <mxCell id="ad1gADm1mFAbiEcde9q4-31" value="saveOrUpdate" style="text;html=1;align=center;verticalAlign=middle;whiteSpace=wrap;rounded=0;fontSize=14;fontFamily=宋体;spacing=0;" parent="ad1gADm1mFAbiEcde9q4-35" vertex="1">
          <mxGeometry width="116" height="26" as="geometry" />
        </mxCell>
        <mxCell id="ad1gADm1mFAbiEcde9q4-34" value="" style="endArrow=classic;html=1;rounded=0;fontSize=14;fontFamily=宋体;" parent="ad1gADm1mFAbiEcde9q4-35" edge="1">
          <mxGeometry width="50" height="50" relative="1" as="geometry">
            <mxPoint y="30" as="sourcePoint" />
            <mxPoint x="120" y="30" as="targetPoint" />
          </mxGeometry>
        </mxCell>
        <mxCell id="ad1gADm1mFAbiEcde9q4-36" value="" style="group" parent="1" vertex="1" connectable="0">
          <mxGeometry x="640" y="358" width="120" height="30" as="geometry" />
        </mxCell>
        <mxCell id="ad1gADm1mFAbiEcde9q4-37" value="insert/update" style="text;html=1;align=center;verticalAlign=middle;whiteSpace=wrap;rounded=0;fontSize=14;fontFamily=宋体;spacing=0;" parent="ad1gADm1mFAbiEcde9q4-36" vertex="1">
          <mxGeometry width="116" height="26" as="geometry" />
        </mxCell>
        <mxCell id="ad1gADm1mFAbiEcde9q4-38" value="" style="endArrow=classic;html=1;rounded=0;fontSize=14;fontFamily=宋体;" parent="ad1gADm1mFAbiEcde9q4-36" edge="1">
          <mxGeometry width="50" height="50" relative="1" as="geometry">
            <mxPoint y="30" as="sourcePoint" />
            <mxPoint x="120" y="30" as="targetPoint" />
          </mxGeometry>
        </mxCell>
        <mxCell id="ad1gADm1mFAbiEcde9q4-42" value="" style="group" parent="1" vertex="1" connectable="0">
          <mxGeometry x="640" y="398" width="120.00472440944884" height="28" as="geometry" />
        </mxCell>
        <mxCell id="ad1gADm1mFAbiEcde9q4-40" value="操作结果" style="text;html=1;align=center;verticalAlign=middle;whiteSpace=wrap;rounded=0;fontSize=14;fontFamily=宋体;spacing=0;" parent="ad1gADm1mFAbiEcde9q4-42" vertex="1">
          <mxGeometry x="0.004724409448840561" y="4" width="120" height="26" as="geometry" />
        </mxCell>
        <mxCell id="ad1gADm1mFAbiEcde9q4-41" value="" style="endArrow=classic;html=1;rounded=0;" parent="ad1gADm1mFAbiEcde9q4-42" source="ad1gADm1mFAbiEcde9q4-33" edge="1">
          <mxGeometry width="50" height="50" relative="1" as="geometry">
            <mxPoint x="130.36692913385832" y="28" as="sourcePoint" />
            <mxPoint y="28" as="targetPoint" />
          </mxGeometry>
        </mxCell>
        <mxCell id="ad1gADm1mFAbiEcde9q4-43" value="" style="group" parent="1" vertex="1" connectable="0">
          <mxGeometry x="204.75" y="273" width="140.5" height="55" as="geometry" />
        </mxCell>
        <mxCell id="1x29o_3ZwKhWgOv2N2SG-41" value="" style="endArrow=classic;html=1;rounded=0;fontSize=14;fontFamily=宋体;" parent="ad1gADm1mFAbiEcde9q4-43" edge="1">
          <mxGeometry width="50" height="50" relative="1" as="geometry">
            <mxPoint y="32" as="sourcePoint" />
            <mxPoint x="140.5" y="32" as="targetPoint" />
          </mxGeometry>
        </mxCell>
        <mxCell id="1x29o_3ZwKhWgOv2N2SG-42" value="发送POST&lt;div&gt;创建/查询请求&lt;/div&gt;" style="text;html=1;align=center;verticalAlign=middle;whiteSpace=wrap;rounded=0;fontSize=14;fontFamily=宋体;" parent="ad1gADm1mFAbiEcde9q4-43" vertex="1">
          <mxGeometry x="16.25" width="110" height="26" as="geometry" />
        </mxCell>
        <mxCell id="ad1gADm1mFAbiEcde9q4-26" value="&lt;span style=&quot;background-color: transparent; color: light-dark(rgb(0, 0, 0), rgb(255, 255, 255));&quot;&gt;create-or-edit&lt;/span&gt;" style="text;html=1;align=center;verticalAlign=middle;whiteSpace=wrap;rounded=0;fontSize=14;fontFamily=宋体;" parent="ad1gADm1mFAbiEcde9q4-43" vertex="1">
          <mxGeometry x="16.25" y="28" width="110" height="26" as="geometry" />
        </mxCell>
        <mxCell id="ad1gADm1mFAbiEcde9q4-50" value="" style="group" parent="1" vertex="1" connectable="0">
          <mxGeometry x="510" y="410" width="120" height="30" as="geometry" />
        </mxCell>
        <mxCell id="ad1gADm1mFAbiEcde9q4-48" value="返回实体" style="text;html=1;align=center;verticalAlign=middle;whiteSpace=wrap;rounded=0;fontSize=14;fontFamily=宋体;spacing=0;" parent="ad1gADm1mFAbiEcde9q4-50" vertex="1">
          <mxGeometry width="116" height="26" as="geometry" />
        </mxCell>
        <mxCell id="ad1gADm1mFAbiEcde9q4-49" value="" style="endArrow=none;html=1;rounded=0;fontSize=14;fontFamily=宋体;startFill=1;startArrow=classic;" parent="ad1gADm1mFAbiEcde9q4-50" edge="1">
          <mxGeometry width="50" height="50" relative="1" as="geometry">
            <mxPoint y="30" as="sourcePoint" />
            <mxPoint x="120" y="30" as="targetPoint" />
          </mxGeometry>
        </mxCell>
        <mxCell id="ad1gADm1mFAbiEcde9q4-60" value="" style="group" parent="1" vertex="1" connectable="0">
          <mxGeometry x="355" y="430" width="145" height="27" as="geometry" />
        </mxCell>
        <mxCell id="ad1gADm1mFAbiEcde9q4-58" value="" style="endArrow=classic;html=1;rounded=0;startArrow=none;startFill=0;endFill=1;" parent="ad1gADm1mFAbiEcde9q4-60" edge="1">
          <mxGeometry width="50" height="50" relative="1" as="geometry">
            <mxPoint x="145" y="27" as="sourcePoint" />
            <mxPoint y="27" as="targetPoint" />
          </mxGeometry>
        </mxCell>
        <mxCell id="ad1gADm1mFAbiEcde9q4-59" value="返回DTO" style="text;html=1;align=center;verticalAlign=middle;whiteSpace=wrap;rounded=0;fontSize=14;fontFamily=宋体;spacing=0;" parent="ad1gADm1mFAbiEcde9q4-60" vertex="1">
          <mxGeometry x="14" width="116" height="26" as="geometry" />
        </mxCell>
      </root>
    </mxGraphModel>
  </diagram>
</mxfile>
